HIERARCHY
ROOT Hips
{
	OFFSET 0.000000 0.000000 0.000000
	CHANNELS 6 Xposition Yposition Zposition Zrotation Yrotation Xrotation 
	JOINT LowerBack
	{
		OFFSET 0.000000 0.000000 0.000000
		CHANNELS 3 Zrotation Yrotation Xrotation
		JOINT Spine
		{
			OFFSET 0.028270 2.035590 -0.193380
			CHANNELS 3 Zrotation Yrotation Xrotation
			JOINT Spine1
			{
				OFFSET 0.056720 2.048850 -0.042750
				CHANNELS 3 Zrotation Yrotation Xrotation
				JOINT Neck
				{
					OFFSET 0.000000 0.000000 0.000000
					CHANNELS 3 Zrotation Yrotation Xrotation
					JOINT Neck1
					{
						OFFSET -0.054170 1.746240 0.172020
						CHANNELS 3 Zrotation Yrotation Xrotation
						JOINT Head
						{
							OFFSET 0.104070 1.761360 -0.123970
							CHANNELS 3 Zrotation Yrotation Xrotation
							End Site
							{
								OFFSET 0.000000 0.000000 0.000000
							}
						}
					}
				}
				JOINT LeftShoulder
				{
					OFFSET 0.000000 0.000000 0.000000
					CHANNELS 3 Zrotation Yrotation Xrotation
					JOINT LeftArm
					{
						OFFSET 3.362410 1.200890 -0.311210
						CHANNELS 3 Zrotation Yrotation Xrotation
						JOINT LeftForeArm
						{
							OFFSET 4.983000 -0.000000 -0.000000
							CHANNELS 3 Zrotation Yrotation Xrotation
							JOINT LeftHand
							{
								OFFSET 3.483560 -0.000000 -0.000000
								CHANNELS 3 Zrotation Yrotation Xrotation
								JOINT LeftFingerBase
								{
									OFFSET 0.000000 0.000000 0.000000
									CHANNELS 3 Zrotation Yrotation Xrotation
									JOINT LeftHandIndex1
									{
										OFFSET 0.715260 -0.000000 -0.000000
										CHANNELS 3 Zrotation Yrotation Xrotation
										End Site
										{
											OFFSET 0.000000 0.000000 0.000000
										}
									}
								}
								JOINT LThumb
								{
									OFFSET 0.000000 0.000000 0.000000
									CHANNELS 3 Zrotation Yrotation Xrotation
									End Site
									{
										OFFSET 0.000000 0.000000 0.000000
									}
								}
							}
						}
					}
				}
				JOINT RightShoulder
				{
					OFFSET 0.000000 0.000000 0.000000
					CHANNELS 3 Zrotation Yrotation Xrotation
					JOINT RightArm
					{
						OFFSET -3.136600 1.374050 -0.404650
						CHANNELS 3 Zrotation Yrotation Xrotation
						JOINT RightForeArm
						{
							OFFSET -5.241900 -0.000000 -0.000000
							CHANNELS 3 Zrotation Yrotation Xrotation
							JOINT RightHand
							{
								OFFSET -3.444170 -0.000000 -0.000000
								CHANNELS 3 Zrotation Yrotation Xrotation
								JOINT RightFingerBase
								{
									OFFSET 0.000000 0.000000 0.000000
									CHANNELS 3 Zrotation Yrotation Xrotation
									JOINT RightHandIndex1
									{
										OFFSET -0.622530 -0.000000 -0.000000
										CHANNELS 3 Zrotation Yrotation Xrotation
										End Site
										{
											OFFSET 0.000000 0.000000 0.000000
										}
									}
								}
								JOINT RThumb
								{
									OFFSET 0.000000 0.000000 0.000000
									CHANNELS 3 Zrotation Yrotation Xrotation
									End Site
									{
										OFFSET 0.000000 0.000000 0.000000
									}
								}
							}
						}
					}
				}
			}
		}
	}
}
}
MOTION
Frames: 7
Frame Time: 0.008333
-10.177893 16.622636 -2.782360 9.340230 82.349717 24.725369 -1.604209 -0.073399 -2.799881 -1.217531 -0.118643 -3.647085 -6.873627 -0.247889 0.016850 10.298870 -2.781367 -6.254862 -3.964846 -0.322310 0.351495 0.000000 0.000000 0.000000 -4.403398 9.994171 2.456370 -62.799632 19.875091 7.408575 -4.135047 -16.685036 -0.009799 -0.298926 4.770641 -0.008219 -0.109043 -0.094444 -0.000000 0.000000 0.000000 0.000000 0.000000 0.000000 0.000000 17.366506 2.331502 0.768043 62.520748 22.094894 7.019782 2.125770 43.699700 0.002317 -2.667219 8.417057 -0.206960 0.078905 -0.249633 0.000000 0.000000 0.000000 0.000000 0.000000 0.000000 0.000000 
-9.971879 16.602696 -2.763642 14.205214 82.281929 29.486755 -2.219776 -0.305200 -2.740647 -1.328914 -0.305028 -3.634866 -6.924477 -0.439683 0.013984 10.462094 -2.870491 -6.309063 -4.019515 -0.325635 0.332459 0.000000 0.000000 0.000000 -4.240925 9.778104 2.474355 -62.653313 19.335441 7.563994 -4.140570 -16.686977 -0.009546 -0.144156 4.789327 -0.001605 -0.109064 -0.091670 -0.000000 0.000000 0.000000 0.000000 0.000000 0.000000 0.000000 17.804868 2.099263 0.766403 63.191930 21.176081 6.699486 2.162833 42.679088 0.002111 -2.894149 8.530357 -0.227069 0.080862 -0.242769 0.000000 0.000000 0.000000 0.000000 0.000000 0.000000 0.000000 
-9.772873 16.587958 -2.744042 18.223390 82.154710 33.416965 -2.725836 -0.517519 -2.649773 -1.421138 -0.479166 -3.616504 -6.971525 -0.617970 0.009442 10.585652 -2.942373 -6.364964 -4.073772 -0.328824 0.312220 0.000000 0.000000 0.000000 -4.107991 9.551618 2.495980 -62.516930 18.641437 7.691027 -4.138495 -16.660905 -0.009097 0.082059 4.778429 0.008013 -0.108627 -0.087986 -0.000000 0.000000 0.000000 0.000000 0.000000 0.000000 0.000000 18.192759 1.884637 0.767659 63.901303 20.250516 6.286775 2.196672 41.535463 0.001730 -3.192898 8.660373 -0.253784 0.083085 -0.235901 -0.000000 0.000000 0.000000 0.000000 0.000000 0.000000 0.000000 
-9.580670 16.579158 -2.724615 21.263469 81.950534 36.378806 -3.119107 -0.699273 -2.529469 -1.493550 -0.630310 -3.592653 -7.014062 -0.772070 0.004984 10.667394 -2.994167 -6.420107 -4.127538 -0.331884 0.291622 0.000000 0.000000 0.000000 -4.017139 9.329950 2.517655 -62.392055 17.795157 7.770915 -4.128245 -16.610393 -0.008469 0.383756 4.737873 0.020635 -0.107701 -0.083466 -0.000000 0.000000 0.000000 0.000000 0.000000 0.000000 0.000000 18.527562 1.694209 0.773451 64.630607 19.327262 5.789470 2.228433 40.268329 0.001230 -3.553936 8.803381 -0.286404 0.085509 -0.228953 -0.000000 0.000000 0.000000 0.000000 0.000000 0.000000 0.000000 
-9.394828 16.576750 -2.706247 23.281396 81.668053 38.322450 -3.398069 -0.845233 -2.383864 -1.545413 -0.753413 -3.564618 -7.051664 -0.897113 0.000459 10.706815 -3.018111 -6.468923 -4.180589 -0.334853 0.272398 0.000000 0.000000 0.000000 -3.977132 9.119621 2.537112 -62.279953 16.812494 7.788380 -4.109754 -16.547997 -0.007697 0.760339 4.668250 0.035859 -0.106278 -0.078217 -0.000000 0.000000 0.000000 0.000000 0.000000 0.000000 0.000000 18.806329 1.536713 0.784530 65.364774 18.403772 5.207966 2.259196 38.883912 0.000683 -3.957146 8.954059 -0.323630 0.087956 -0.221845 -0.000000 0.000000 0.000000 0.000000 0.000000 0.000000 0.000000 
-9.214681 16.580906 -2.689207 24.387830 81.316319 39.352558 -3.573596 -0.957249 -2.216619 -1.578388 -0.849545 -3.531809 -7.084603 -0.994118 0.001693 10.712229 -3.027647 -6.513249 -4.232874 -0.337713 0.254149 0.000000 0.000000 0.000000 -3.984481 8.933729 2.551111 -62.179874 15.697444 7.741707 -4.083343 -16.484338 -0.006826 1.207489 4.570541 0.053186 -0.104386 -0.072356 -0.000000 0.000000 0.000000 0.000000 0.000000 0.000000 0.000000 19.041981 1.395944 0.800523 66.083748 17.500285 4.571658 2.290974 37.384406 0.000162 -4.385480 9.102274 -0.363862 0.090380 -0.214407 -0.000000 0.000000 0.000000 0.000000 0.000000 0.000000 0.000000 
-9.039401 16.591532 -2.673749 24.677272 80.906971 39.559464 -3.645667 -1.037250 -2.032975 -1.592204 -0.920644 -3.495311 -7.113490 -1.065115 0.008825 10.688415 -3.021698 -6.548886 -4.283783 -0.340474 0.238243 0.000000 0.000000 0.000000 -4.038175 8.771921 2.558169 -62.090111 14.477249 7.631051 -4.049435 -16.443999 -0.005913 1.715362 4.446772 0.071615 -0.102069 -0.066056 -0.000000 0.000000 0.000000 0.000000 0.000000 0.000000 0.000000 19.236825 1.271119 0.820836 66.775773 16.611351 3.886178 2.325354 35.782254 -0.000254 -4.809826 9.236910 -0.404099 0.092598 -0.206551 -0.000000 0.000000 0.000000 0.000000 0.000000 0.000000 0.000000 
